<?xml version="1.0" encoding="UTF-8"?>
<svg id="Layer_2" data-name="Layer 2" xmlns="http://www.w3.org/2000/svg" xmlns:xlink="http://www.w3.org/1999/xlink" viewBox="0 0 526.72 412.26">
  <defs>
    <style>
      .cls-1 {
        fill: #202a5c;
      }

      .cls-2 {
        fill: #15517c;
      }

      .cls-3 {
        fill: #0a5d7d;
      }

      .cls-4 {
        fill: #144c77;
      }

      .cls-5 {
        fill: #fff;
        stroke: #202a58;
      }

      .cls-5, .cls-6, .cls-7, .cls-8, .cls-9 {
        stroke-miterlimit: 10;
      }

      .cls-5, .cls-7 {
        stroke-width: 2px;
      }

      .cls-6, .cls-7, .cls-8 {
        stroke: #144c77;
      }

      .cls-6, .cls-7, .cls-8, .cls-9 {
        fill: none;
      }

      .cls-10 {
        fill: url(#linear-gradient-2);
      }

      .cls-11 {
        fill: #18527f;
      }

      .cls-12 {
        fill: #1f6286;
      }

      .cls-13 {
        fill: url(#linear-gradient-4);
      }

      .cls-14 {
        fill: url(#radial-gradient);
      }

      .cls-15 {
        fill: url(#linear-gradient-3);
      }

      .cls-8 {
        stroke-width: .5px;
      }

      .cls-16 {
        fill: #4ca955;
      }

      .cls-17 {
        fill: #1e2757;
      }

      .cls-18 {
        fill: #1d2f5e;
      }

      .cls-19 {
        fill: #183761;
      }

      .cls-20 {
        fill: #1e6992;
      }

      .cls-21 {
        fill: #181d4d;
      }

      .cls-22 {
        fill: #1e2554;
      }

      .cls-23 {
        fill: #1f4574;
      }

      .cls-24 {
        fill: #2e477a;
      }

      .cls-25 {
        fill: #397291;
      }

      .cls-26 {
        fill: #1e3965;
      }

      .cls-27 {
        fill: #202758;
      }

      .cls-28 {
        fill: #252a61;
      }

      .cls-29 {
        fill: #1f3363;
      }

      .cls-30 {
        fill: url(#linear-gradient);
      }

      .cls-9 {
        stroke: #1b3f72;
        stroke-width: 3px;
      }

      .cls-31 {
        fill: #1e5d83;
      }

      .cls-32 {
        fill: #19436f;
      }

      .cls-33 {
        fill: #1f2a59;
      }

      .cls-34 {
        fill: #202959;
      }
    </style>
    <radialGradient id="radial-gradient" cx="106.33" cy="381.56" fx="106.33" fy="381.56" r="26.08" gradientTransform="translate(205.03 -2.05) rotate(30)" gradientUnits="userSpaceOnUse">
      <stop offset=".03" stop-color="#fff"/>
      <stop offset=".07" stop-color="#f5f6f7"/>
      <stop offset=".26" stop-color="#c9cfd5"/>
      <stop offset=".42" stop-color="#a9b2bb"/>
      <stop offset=".56" stop-color="#96a1ac"/>
      <stop offset=".66" stop-color="#8f9ba7"/>
      <stop offset=".84" stop-color="#c8ccd3"/>
      <stop offset="1" stop-color="#faf8fa"/>
    </radialGradient>
    <linearGradient id="linear-gradient" x1="33.62" y1="278.37" x2="106.99" y2="278.37" gradientUnits="userSpaceOnUse">
      <stop offset=".03" stop-color="#fff"/>
      <stop offset=".11" stop-color="#f4f5f6"/>
      <stop offset=".25" stop-color="#d8dce0"/>
      <stop offset=".42" stop-color="#aab3bc"/>
      <stop offset=".52" stop-color="#8f9ba7"/>
      <stop offset=".54" stop-color="#94a0ab"/>
      <stop offset=".68" stop-color="#c0c5cd"/>
      <stop offset=".81" stop-color="#dfe1e5"/>
      <stop offset=".92" stop-color="#f3f1f4"/>
      <stop offset="1" stop-color="#faf8fa"/>
    </linearGradient>
    <linearGradient id="linear-gradient-2" x1="4.45" y1="102.16" x2="78.45" y2="102.16" gradientUnits="userSpaceOnUse">
      <stop offset=".03" stop-color="#939fab"/>
      <stop offset=".16" stop-color="#a8b2bb"/>
      <stop offset=".41" stop-color="#ced3d8"/>
      <stop offset=".64" stop-color="#e8ebed"/>
      <stop offset=".84" stop-color="#f9f9fa"/>
      <stop offset="1" stop-color="#fff"/>
    </linearGradient>
    <linearGradient id="linear-gradient-3" x1="16.75" y1="149.52" x2="51.95" y2="149.52" xlink:href="#linear-gradient-2"/>
    <linearGradient id="linear-gradient-4" x1="81.42" y1="142.27" x2="104.96" y2="142.27" gradientUnits="userSpaceOnUse">
      <stop offset=".03" stop-color="#939fab"/>
      <stop offset=".22" stop-color="#b3bbc4" stop-opacity=".91"/>
      <stop offset=".66" stop-color="#ebedef" stop-opacity=".75"/>
      <stop offset="1" stop-color="#fff" stop-opacity=".7"/>
    </linearGradient>
  </defs>
  <polygon class="cls-29" points="149.72 381.56 149.72 332.8 165.29 332.8 165.29 373.78 149.72 381.56"/>
  <path class="cls-28" d="M128.4,402.88s82.96-37.79,89.54-42.64-28.39,44.68-89.54,42.64Z"/>
  <ellipse class="cls-14" cx="106.33" cy="381.56" rx="20.77" ry="30.47" transform="translate(-176.54 104.29) rotate(-30)"/>
  <path class="cls-7" d="M99.59,353.52s16.51,2.04,22.89,16.6,7.66,27.57-.34,34.3-18.38,5.28-28.68-6.72c-10.3-12-12.85-24.34-10.3-32.68s14.19-11.93,16.43-11.49Z"/>
  <path class="cls-5" d="M97.96,369.46s2.55-4.09,7.83-1.19,14.64,16.51,10.55,22.47-11.66,5.53-16.43-4.09-3.32-17.02-1.96-17.19Z"/>
  <g>
    <path class="cls-4" d="M464.78,1.86h39.57s14.13.6-5.02,4.68-108.85-3.23-145.62,24.85-43.83,54.13-49.62,66.89-45.49,170.3-45.74,171.19l-3.32-.18s-3.57-45.91-10.47-56.12c0,0-1.91-10.34-5.87-11.23,0,0,.7-5.36-1.85-6.19l-.8-.51-.03-1.95s4.02-1.56,2.04-5.14-5.23-2.78-6.51-1.63-3.8,4.23.61,6.64l.48.1-.06,2.59s-1.4.19-1.69.57-.99,3.19-.45,5.17c0,0-3.54,1.09-5.14,3.48l-1.6,2.39s-4.28,15.24-4.7,15.41-6.47-33.87-8.68-36.6,28-113.79,28-113.79c0,0,1.7-1.53-7.57-.94s-85.62-2.13-96.34.94-36.26,12.77-42.38,22.21c0,0,6.64-48.34,30.81-68.94C146.99,5.18,173.72,1.78,187.67,1.86c13.96.09,277.11,0,277.11,0Z"/>
    <path class="cls-4" d="M179.89,107.18h1.76c.36,0,.65.29.65.65v14.96h-3.06v-14.96c0-.36.29-.65.65-.65Z"/>
    <circle class="cls-4" cx="180.86" cy="100.41" r="8.3"/>
    <path class="cls-4" d="M179.24,122.8s-4.71,2.98-4.2,7.32v.21s13.11,0,13.11,0c0,0-.13-7-5.84-7.53h-3.06Z"/>
    <path class="cls-4" d="M172.06,139.33h17.55s-.06-6.26-3.38-6.77-11.2-.06-11.2-.06c0,0-2.71.77-2.97,6.83Z"/>
    <path class="cls-4" d="M167.8,142.07s24.85.34,26.04.3,2.47,1.36,2.47,2.3.81,4.43-2.13,4.64-26.85.34-27.87,0-2.34-2.3-1.66-4.72,3.15-2.51,3.15-2.51Z"/>
    <path class="cls-4" d="M188.14,151.9s5.43-.19,6.19,0,2.36,7.34,2.36,7.34c0,0,22.47,76.4,21.19,95.3,0,0-.64,1.53-6.68-2.6s-9.32-5.23-9.83-6,.17-9.02-.04-10.85-2.85-38.77-6.43-51.02-7.47-32.43-6.77-32.17Z"/>
    <path class="cls-4" d="M177.03,151.82h7.66s16.88,87.57,11.72,91.32c0,0-6.17-2.26-6.04-3.66s1.66-5.55-1.28-7.98-5.36-1.53-5.74-1.53-.7-1.79.19-1.91,4.6-2.87,2.55-5.43-4.53-4.4-5.36-4.6-2.74,1.21-3.32,3.06-1.6,2.49-1.85,2.62-1.15,2.68,1.28,3.96,1.72,2.36.06,2.55-5.04.7-5.81,3.26-.7,3.38-.96,4.34-1.79,1.87-3.02-.98-2.6-5.36-2.94-5.79,9.91-77.66,12.85-79.23Z"/>
    <path class="cls-4" d="M168.27,151.82h4.77s-11.91,62.04-11.74,71.74c0,0-2.04-.51-2.72,0s-.85,5.45,0,5.45,1.36,3.4-1.7,3.23-2.72,2.38-2.55,3.74-7.49,9.02-7.49,9.02c0,0,.68-19.91,3.23-32,2.55-12.09,18.21-61.19,18.21-61.19Z"/>
    <path class="cls-6" d="M232.06,201.44c.99-.09,4.72-1.79,4.34,0s-3.7,1.88-3.7,1.88c0,0-1.53-1.8-.64-1.88Z"/>
    <path class="cls-4" d="M228.95,206.03s7.8.45,9.2,0,2.43,2.04.26,2.71-9.51,1.21-10.5-.8,1.04-1.91,1.04-1.91Z"/>
    <path class="cls-4" d="M226.23,213.44c.43-1.11,2.21-3.06,3.23-1.87s-3.23,14.21-3.23,16.68-4,19.49-4.09,21.45-3.91,5.53-3.23-2.13,7.32-34.13,7.32-34.13Z"/>
    <path class="cls-4" d="M233.65,211.19s-7.17,25.01-9.43,43.63c0,0,6,1.13,7.55,3.04s.67,4.85,2.32,6.51,5.12,3.32,5.56,3.96,1.97-.13,1.59-8.04-4.67-48.02-4.82-49.1c-.3-.12-2.8-.33-2.78,0Z"/>
    <path class="cls-4" d="M238.06,212.93c-.55,1.15,8.68,26.13,6.98,56.6h7.32s-9.02-49.79-11.4-57.36c0,0-1.72-1.67-2.89.77Z"/>
    <path class="cls-33" d="M241.97,273.69c.29-.18,14.72,0,14.72,0,0,0,1.79,6.13-1.79,6.81s-12.94-.51-12.94-.51c0,0-1.28-5.53,0-6.3Z"/>
    <path class="cls-26" d="M221.89,266.46s7.32-.77,8.17,0,9.28,6.4,9.79,7.16.23,6.52.23,6.52l-27.16-.73.45-5.79,8.53-7.16Z"/>
    <path class="cls-4" d="M174.57,237.95h12.68s1.36-2.3-2.04-3.15-6.89-1.45-9.62,0-1.02,3.15-1.02,3.15Z"/>
    <ellipse class="cls-8" cx="161.23" cy="237.19" rx="2.72" ry="2.09"/>
    <path class="cls-4" d="M171.59,243.14c-.07.34,39.23,27.4,39.23,27.4l8.51-9.28-34.72-20.71s-11.74-3.38-13.02,2.58Z"/>
    <path class="cls-4" d="M110.27,275.48l46.34-33.7h7.34s17.55,16.44,36.45,26.73c0,0,10.09,7.36,7.15,8.89s-23.55-.38-23.55-.38l.19-7.28-9.77-.26v-6.38s-6.32-.19-7.34-.83-8.74-11.74-9.13-12.38-9.96,10.91-9.96,12.32l-6.19-.38-.64,6.99-8.81-.31-.77,9.02-22.98.17s-.11-1.17,1.66-2.21Z"/>
    <path class="cls-4" d="M152.14,261.34c.54.06,9.93,0,9.93,0,0,0,.73-1.18-.41-2.01s-2.94-3.06-3.31-3.13-2.47,0-2.47,0c0,0-3.22,2.6-3.61,3.68s-.13,1.27-.13,1.27"/>
    <rect class="cls-4" x="144.74" y="266.1" width="25.34" height="3.26"/>
    <rect class="cls-4" x="134.59" y="272.61" width="46.53" height="4.47"/>
    <rect class="cls-4" x="127.31" y="280.27" width="61.28" height="6.26"/>
    <rect class="cls-4" x="86.99" y="282.2" width="17.11" height="4.77"/>
    <path class="cls-3" d="M191.42,281.27v5.96h27.49s1.79-5.87-7.49-5.96-20,0-20,0Z"/>
    <path class="cls-4" d="M106.33,286.97h17.19s.43-6.15-.34-6.26-14.98,0-14.98,0c0,0-2-.28-1.87,1.47s-.34,4.79,0,4.79Z"/>
    <path class="cls-27" d="M89.33,290.67h19.66l-.38,18.13h-11.74s-9.19-18.77-7.53-18.13Z"/>
    <rect class="cls-1" x="111.93" y="290.65" width="16.47" height="17.51"/>
    <rect class="cls-23" x="131.2" y="289.65" width="4.6" height="17.62"/>
    <rect class="cls-32" x="138.99" y="289.65" width="36.13" height="16.85"/>
    <rect class="cls-25" x="178.06" y="289.65" width="5.23" height="17.62"/>
    <polygon class="cls-12" points="187.52 290.65 203.72 290.65 203.72 309.31 191.42 309.31 191.42 306.2 188.86 306.2 188.86 309.31 186.86 309.31 186.86 290.65 187.52 290.65"/>
    <polygon class="cls-20" points="207.16 290.65 207.16 309.31 230.84 309.31 221.97 290.65 207.16 290.65"/>
    <polygon class="cls-22" points="234.23 291.18 251.59 291.18 244.18 315.05 234.23 291.18"/>
    <rect class="cls-21" x="230.84" y="282.88" width="23.81" height="3.64"/>
    <rect class="cls-4" x="99.06" y="311.24" width="22.91" height="3.74"/>
    <rect class="cls-4" x="127.31" y="311.56" width="59.55" height="3.49"/>
    <rect class="cls-4" x="191.42" y="311.24" width="43.06" height="3.57"/>
    <path class="cls-11" d="M207.16,320.93h28.34s1.36,25.02-28.34,32v-32Z"/>
    <polygon class="cls-2" points="186.86 320.24 202.48 320.24 202.48 354.8 187.52 362.8 186.86 320.24"/>
    <polygon class="cls-18" points="178.06 320.24 182.57 320.24 182.57 365.86 178.06 367.65 178.06 320.24"/>
    <polygon class="cls-19" points="168.86 372.24 175.12 368.54 175.12 318.5 140.01 318.5 140.01 386.16 146.14 382.46 145.12 329.86 169.12 329.48 168.86 372.24"/>
    <polygon class="cls-24" points="137.01 318.5 131.65 318.5 131.65 362.8 137.01 375.22 137.01 318.5"/>
    <polygon class="cls-34" points="112.35 319.48 128.61 319.48 128.61 357.69 112.35 345.86 112.35 319.48"/>
    <path class="cls-31" d="M134.59,212.33s6.62,21.79,6.45,29.45c0,0,2.38,4.09,2.72,3.23s-2.55-31.08-7.83-33.41c0,0-1.6-.12-1.34.73Z"/>
    <path class="cls-31" d="M129.16,211.59c.2-.17,3.7-2.63,4.85,3.5,1.15,6.13,5.85,31.28,5.16,33.96,0,0-13.84,10.68-15.12,10.83s4.09-47.45,5.11-48.29Z"/>
    <path class="cls-31" d="M123.86,211.6c1-.64,2.88.39,2.54,1.24s-8.34,38.98-6.64,50.89c0,0-5.11,4.1-6.47,4.77s9.06-55.93,10.57-56.91Z"/>
    <path class="cls-31" d="M126.86,206.22c3.98-1.17,8.49-1.15,9.38-.45s1.15,3.32-.51,3.64-8.87.57-8.87.26-1.09-3.13,0-3.45Z"/>
    <path class="cls-8" d="M86.27,279.18c.32.06,17.23.26,17.36,0s1.21-3.77,2.23-4.34-.45-6.89-5.55-9-9.15,5.36-11.18,7.21-2.86,6.13-2.86,6.13Z"/>
    <path class="cls-31" d="M159.25,168.41s-13.62,28.6-13.45,49.19c0,0-3.74,4.09-4.77-4.26s-4.51-11.06-5.23-11.06-.81-5.28-2.3-5.96-3.19-2.23-.64-2.82,3.83-5.8.32-7.07.26-2.04-.51-2.04-3.32-.38-3,.06.38,1.34-.26,1.79-3,2.04-2.43,4.15,1.15,2.6,2.17,3.12,1.28,2.31.32,2.82-2.87,2.55-2.23,3.51.83,1.79.64,2.04-2.23.32-3.45,1.72c0,0-2.98,2.94-2.98,5.4s-.94,4.94-2.04,7.83-10.41,34.68-10.81,49.28c0,0-4.34-2.72-5.53-3.4s-.02-6.38-1.87-7.4-3.97-.83-4.99.06-1.72,4.72-1.46,5.87-11.74,13.72-11.74,13.72c0,0-34.91-69.57-32.11-79.53s35.62-17.74,37.91-18.38,37.02-9.32,40.09-9.96,30.77-.51,30.34,1.32Z"/>
    <polygon class="cls-17" points="97.12 320.24 107.84 319.48 106.99 343.95 95.08 320.41 97.12 320.24"/>
    <path class="cls-9" d="M55.66,180.04s3.16-9.17,12.52-13.29,33.87-11.6,38.47-9.56,5.28,4.59,5.28,4.59l-50.55,17.45-7.72,2.68s1.08-1.95,2-1.87Z"/>
    <ellipse class="cls-4" cx="225.92" cy="262.33" rx="2.7" ry="1.79"/>
    <polygon class="cls-30" points="33.62 227.33 86.27 345.44 106.99 343.95 45.55 211.31 33.62 227.33"/>
    <path class="cls-9" d="M106.28,344.19l-59.2-128.71s-8.96-23.66,15.95-29.83,59.29-21.49,79.54-20.3,16.69,1.4,16.69,1.4c-11.85-13.78-27.41-8.97-28.05-8.97s-42.51,10.21-75.19,22.98-25.28,40.1-25.28,40.1l55.53,124.58"/>
    <path class="cls-10" d="M14.15,103.54c16.1-3.15,27.54-8.14,35.41-12.48,5.01-2.76,13.91-8.22,21.32-5.42,1.03.39,4.11,1.55,6,4.73.13.22,2.58,4.46,1.09,7.92-1.51,3.51-6.11,3.96-13.35,5.65-11.49,2.69-8.2,3.51-24.01,7.66-5.22,1.37-11.81,2.92-19.53,4.3-.19.21-4.05,4.43-9.09,3.39-4.68-.96-8.76-6.11-7.19-10.63,1.13-3.28,5.01-5.57,9.35-5.13Z"/>
    <path class="cls-9" d="M14.01,119.48s4.32-1.24,10.72-3.12c17.92-5.28,52.11-15.62,53.24-18.07,1.53-3.32-1.02-13.79-10.72-12.89s-35.23,14.63-53.23,17.02-4.95,18.5,0,17.07Z"/>
    <path class="cls-15" d="M17,123.06l26.1,55.77s11.99,6.52,8.07-5.31-25.04-55.13-27.58-55.1-8.07,1.48-6.59,4.64Z"/>
    <path class="cls-9" d="M56.01,180.76l-30.51-62.55s-8.43-.77-7.91,2.81,29.8,63.96,29.8,63.96l8.63-4.21Z"/>
    <path class="cls-13" d="M81.42,128.51s7.13-3.68,23.55,26.77c0,0-11.35-.21-10.81.85s-12.74-27.62-12.74-27.62Z"/>
    <path class="cls-9" d="M66.93,103.14l27.76,54.05s8.38-1.68,10.72-.22-29.94-57.12-29.94-57.12l-8.54,3.3Z"/>
    <path class="cls-16" d="M523.76,5.44s-18.98,17.11-81.11,15.23-93.79,27.83-100.94,36-19.91,20.68-32.43,66.13-51.83,197.45-56.6,203.23-13.36,50.81-69.53,75.57c0,0,76.34,5.11,118.89-50.72,42.55-55.83,85.11-265.87,88.68-271.49,0,0,68.17.77,72-1.28s51.57-9.62,61.02-72.68Z"/>
  </g>
</svg>